<svg width="139" height="17" viewBox="0 0 139 17" fill="none" xmlns="http://www.w3.org/2000/svg">
<path d="M22.8251 12.8369V16.1651H20.6193V6.73792L20.71 6.6665H32.1897C33.2514 6.6665 33.9247 6.81062 34.3219 7.05618C34.6667 7.26938 34.8543 7.59052 34.8543 8.16817V10.5066C34.8543 11.1101 34.6625 11.441 34.3185 11.6574C33.9227 11.9064 33.2516 12.0514 32.1897 12.0514H23.619H23.4161L23.2706 12.1927L22.9766 12.4783L22.8251 12.6256V12.8369ZM32.5404 10.5842C32.5924 10.4892 32.6282 10.3895 32.6516 10.2876L32.7117 10.2655V9.9166V8.81474C32.7117 8.58459 32.67 8.3543 32.5507 8.14816C32.428 7.93618 32.2483 7.79291 32.0475 7.69959C31.6836 7.53048 31.2008 7.50653 30.7118 7.50653H23.6327H23.4298L23.2843 7.64791L22.9904 7.93348L22.8388 8.08075V8.29209V10.4473V10.6782L23.0145 10.8279L23.3496 11.1135L23.4898 11.2329H23.6739H30.6898C31.1936 11.2329 31.6814 11.212 32.043 11.0419C32.246 10.9464 32.4227 10.7993 32.5404 10.5842Z" fill="white"/>
<path d="M22.8251 12.8369V16.1651H20.6193V6.73792L20.71 6.6665H32.1897C33.2514 6.6665 33.9247 6.81062 34.3219 7.05618C34.6667 7.26938 34.8543 7.59052 34.8543 8.16817V10.5066C34.8543 11.1101 34.6625 11.441 34.3185 11.6574C33.9227 11.9064 33.2516 12.0514 32.1897 12.0514H23.619H23.4161L23.2706 12.1927L22.9766 12.4783L22.8251 12.6256V12.8369ZM32.5404 10.5842C32.5924 10.4892 32.6282 10.3895 32.6516 10.2876L32.7117 10.2655V9.9166V8.81474C32.7117 8.58459 32.67 8.3543 32.5507 8.14816C32.428 7.93618 32.2483 7.79291 32.0475 7.69959C31.6836 7.53048 31.2008 7.50653 30.7118 7.50653H23.6327H23.4298L23.2843 7.64791L22.9904 7.93348L22.8388 8.08075V8.29209V10.4473V10.6782L23.0145 10.8279L23.3496 11.1135L23.4898 11.2329H23.6739H30.6898C31.1936 11.2329 31.6814 11.212 32.043 11.0419C32.246 10.9464 32.4227 10.7993 32.5404 10.5842Z" stroke="black"/>
<path d="M22.8251 12.8369V16.1651H20.6193V6.73792L20.71 6.6665H32.1897C33.2514 6.6665 33.9247 6.81062 34.3219 7.05618C34.6667 7.26938 34.8543 7.59052 34.8543 8.16817V10.5066C34.8543 11.1101 34.6625 11.441 34.3185 11.6574C33.9227 11.9064 33.2516 12.0514 32.1897 12.0514H23.619H23.4161L23.2706 12.1927L22.9766 12.4783L22.8251 12.6256V12.8369ZM32.5404 10.5842C32.5924 10.4892 32.6282 10.3895 32.6516 10.2876L32.7117 10.2655V9.9166V8.81474C32.7117 8.58459 32.67 8.3543 32.5507 8.14816C32.428 7.93618 32.2483 7.79291 32.0475 7.69959C31.6836 7.53048 31.2008 7.50653 30.7118 7.50653H23.6327H23.4298L23.2843 7.64791L22.9904 7.93348L22.8388 8.08075V8.29209V10.4473V10.6782L23.0145 10.8279L23.3496 11.1135L23.4898 11.2329H23.6739H30.6898C31.1936 11.2329 31.6814 11.212 32.043 11.0419C32.246 10.9464 32.4227 10.7993 32.5404 10.5842Z" stroke="url(#paint0_linear)"/>
<mask id="path-2-inside-1" fill="white">
<path d="M41.2769 8.08749L44.0679 12.0908L43.9003 12.4599H37.736L36.1537 14.378H45.3178L45.9826 14.7471L47.4 16.6653H51.1058L42.9856 6.04541"/>
</mask>
<path d="M41.2769 8.08749L44.0679 12.0908L43.9003 12.4599H37.736L36.1537 14.378H45.3178L45.9826 14.7471L47.4 16.6653H51.1058L42.9856 6.04541" fill="white"/>
<path d="M44.0679 12.0908L44.9784 12.5042L45.2138 11.9859L44.8882 11.5189L44.0679 12.0908ZM43.9003 12.4599V13.4599H44.5445L44.8109 12.8733L43.9003 12.4599ZM37.736 12.4599V11.4599H37.2646L36.9646 11.8236L37.736 12.4599ZM36.1537 14.378L35.3823 13.7417L34.0325 15.378H36.1537V14.378ZM45.3178 14.378L45.8032 13.5038L45.5768 13.378H45.3178V14.378ZM45.9826 14.7471L46.7868 14.1528L46.6578 13.9782L46.468 13.8728L45.9826 14.7471ZM47.4 16.6653L46.5958 17.2596L46.8956 17.6653H47.4V16.6653ZM51.1058 16.6653V17.6653H53.1292L51.9002 16.0579L51.1058 16.6653ZM40.4566 8.65939L43.2476 12.6627L44.8882 11.5189L42.0972 7.51558L40.4566 8.65939ZM43.1573 11.6774L42.9898 12.0465L44.8109 12.8733L44.9784 12.5042L43.1573 11.6774ZM43.9003 11.4599H37.736V13.4599H43.9003V11.4599ZM36.9646 11.8236L35.3823 13.7417L36.9251 15.0144L38.5074 13.0962L36.9646 11.8236ZM36.1537 15.378H45.3178V13.378H36.1537V15.378ZM44.8324 15.2523L45.4972 15.6214L46.468 13.8728L45.8032 13.5038L44.8324 15.2523ZM45.1783 15.3414L46.5958 17.2596L48.2043 16.071L46.7868 14.1528L45.1783 15.3414ZM47.4 17.6653H51.1058V15.6653H47.4V17.6653ZM51.9002 16.0579L43.7799 5.438L42.1912 6.65282L50.3114 17.2727L51.9002 16.0579Z" fill="black" mask="url(#path-2-inside-1)"/>
<path d="M44.0679 12.0908L44.9784 12.5042L45.2138 11.9859L44.8882 11.5189L44.0679 12.0908ZM43.9003 12.4599V13.4599H44.5445L44.8109 12.8733L43.9003 12.4599ZM37.736 12.4599V11.4599H37.2646L36.9646 11.8236L37.736 12.4599ZM36.1537 14.378L35.3823 13.7417L34.0325 15.378H36.1537V14.378ZM45.3178 14.378L45.8032 13.5038L45.5768 13.378H45.3178V14.378ZM45.9826 14.7471L46.7868 14.1528L46.6578 13.9782L46.468 13.8728L45.9826 14.7471ZM47.4 16.6653L46.5958 17.2596L46.8956 17.6653H47.4V16.6653ZM51.1058 16.6653V17.6653H53.1292L51.9002 16.0579L51.1058 16.6653ZM40.4566 8.65939L43.2476 12.6627L44.8882 11.5189L42.0972 7.51558L40.4566 8.65939ZM43.1573 11.6774L42.9898 12.0465L44.8109 12.8733L44.9784 12.5042L43.1573 11.6774ZM43.9003 11.4599H37.736V13.4599H43.9003V11.4599ZM36.9646 11.8236L35.3823 13.7417L36.9251 15.0144L38.5074 13.0962L36.9646 11.8236ZM36.1537 15.378H45.3178V13.378H36.1537V15.378ZM44.8324 15.2523L45.4972 15.6214L46.468 13.8728L45.8032 13.5038L44.8324 15.2523ZM45.1783 15.3414L46.5958 17.2596L48.2043 16.071L46.7868 14.1528L45.1783 15.3414ZM47.4 17.6653H51.1058V15.6653H47.4V17.6653ZM51.9002 16.0579L43.7799 5.438L42.1912 6.65282L50.3114 17.2727L51.9002 16.0579Z" fill="url(#paint1_linear)" mask="url(#path-2-inside-1)"/>
<mask id="path-4-inside-2" fill="white">
<path d="M78.0543 14.6232V11.7649L78.3894 11.4793H84.595V9.68237H74.7661V16.6653H89.2595V14.8684H78.4307"/>
</mask>
<path d="M78.0543 14.6232V11.7649L78.3894 11.4793H84.595V9.68237H74.7661V16.6653H89.2595V14.8684H78.4307" fill="white"/>
<path d="M78.0543 11.7649L77.4057 11.0037L77.0543 11.3032V11.7649H78.0543ZM78.3894 11.4793V10.4793H78.0212L77.7409 10.7181L78.3894 11.4793ZM84.595 11.4793V12.4793H85.595V11.4793H84.595ZM84.595 9.68237H85.595V8.68237H84.595V9.68237ZM74.7661 9.68237V8.68237H73.7661V9.68237H74.7661ZM74.7661 16.6653H73.7661V17.6653H74.7661V16.6653ZM89.2595 16.6653V17.6653H90.2595V16.6653H89.2595ZM89.2595 14.8684H90.2595V13.8684H89.2595V14.8684ZM79.0543 14.6232V11.7649H77.0543V14.6232H79.0543ZM78.7029 12.526L79.038 12.2404L77.7409 10.7181L77.4057 11.0037L78.7029 12.526ZM78.3894 12.4793H84.595V10.4793H78.3894V12.4793ZM85.595 11.4793V9.68237H83.595V11.4793H85.595ZM84.595 8.68237H74.7661V10.6824H84.595V8.68237ZM73.7661 9.68237V16.6653H75.7661V9.68237H73.7661ZM74.7661 17.6653H89.2595V15.6653H74.7661V17.6653ZM90.2595 16.6653V14.8684H88.2595V16.6653H90.2595ZM89.2595 13.8684H78.4307V15.8684H89.2595V13.8684Z" fill="black" mask="url(#path-4-inside-2)"/>
<path d="M78.0543 11.7649L77.4057 11.0037L77.0543 11.3032V11.7649H78.0543ZM78.3894 11.4793V10.4793H78.0212L77.7409 10.7181L78.3894 11.4793ZM84.595 11.4793V12.4793H85.595V11.4793H84.595ZM84.595 9.68237H85.595V8.68237H84.595V9.68237ZM74.7661 9.68237V8.68237H73.7661V9.68237H74.7661ZM74.7661 16.6653H73.7661V17.6653H74.7661V16.6653ZM89.2595 16.6653V17.6653H90.2595V16.6653H89.2595ZM89.2595 14.8684H90.2595V13.8684H89.2595V14.8684ZM79.0543 14.6232V11.7649H77.0543V14.6232H79.0543ZM78.7029 12.526L79.038 12.2404L77.7409 10.7181L77.4057 11.0037L78.7029 12.526ZM78.3894 12.4793H84.595V10.4793H78.3894V12.4793ZM85.595 11.4793V9.68237H83.595V11.4793H85.595ZM84.595 8.68237H74.7661V10.6824H84.595V8.68237ZM73.7661 9.68237V16.6653H75.7661V9.68237H73.7661ZM74.7661 17.6653H89.2595V15.6653H74.7661V17.6653ZM90.2595 16.6653V14.8684H88.2595V16.6653H90.2595ZM89.2595 13.8684H78.4307V15.8684H89.2595V13.8684Z" fill="url(#paint2_linear)" mask="url(#path-4-inside-2)"/>
<path d="M75.2661 6.66943H88.8858V7.63069H75.2661V6.66943Z" fill="white"/>
<path d="M75.2661 6.66943H88.8858V7.63069H75.2661V6.66943Z" stroke="black"/>
<path d="M75.2661 6.66943H88.8858V7.63069H75.2661V6.66943Z" stroke="url(#paint3_linear)"/>
<mask id="path-7-inside-3" fill="white">
<path d="M58.4816 8.04695H70.2691C70.1015 6.57601 69.1428 6.16113 66.8106 6.16113H58.3552C55.6906 6.16113 54.8555 6.65145 54.8555 8.65311V14.2136C54.8555 16.1748 55.6796 16.7056 58.3552 16.7056H66.8023C69.1758 16.7056 70.0988 16.2557 70.1757 14.7443H58.4733L58.1382 14.4183V8.29211"/>
</mask>
<path d="M58.4816 8.04695H70.2691C70.1015 6.57601 69.1428 6.16113 66.8106 6.16113H58.3552C55.6906 6.16113 54.8555 6.65145 54.8555 8.65311V14.2136C54.8555 16.1748 55.6796 16.7056 58.3552 16.7056H66.8023C69.1758 16.7056 70.0988 16.2557 70.1757 14.7443H58.4733L58.1382 14.4183V8.29211" fill="white"/>
<path d="M70.2691 8.04695V9.04695H71.3895L71.2627 7.93377L70.2691 8.04695ZM70.1757 14.7443L71.1744 14.7951L71.2279 13.7443H70.1757V14.7443ZM58.4733 14.7443L57.7761 15.4611L58.0672 15.7443H58.4733V14.7443ZM58.1382 14.4183H57.1382V14.8407L57.4409 15.1352L58.1382 14.4183ZM58.4816 9.04695H70.2691V7.04695H58.4816V9.04695ZM71.2627 7.93377C71.2096 7.46827 71.0864 7.01548 70.8397 6.61103C70.5865 6.19597 70.2361 5.88562 69.8135 5.66553C69.0264 5.25557 67.984 5.16113 66.8106 5.16113V7.16113C67.9694 7.16113 68.5724 7.27413 68.8896 7.43935C69.0192 7.50685 69.0856 7.57602 69.1322 7.65245C69.1853 7.73949 69.2447 7.89017 69.2755 8.16014L71.2627 7.93377ZM66.8106 5.16113H58.3552V7.16113H66.8106V5.16113ZM58.3552 5.16113C57.0442 5.16113 55.8674 5.26294 55.0393 5.83264C54.0825 6.49091 53.8555 7.54821 53.8555 8.65311H55.8555C55.8555 7.75635 56.046 7.56766 56.1729 7.48035C56.4285 7.30449 57.0016 7.16113 58.3552 7.16113V5.16113ZM53.8555 8.65311V14.2136H55.8555V8.65311H53.8555ZM53.8555 14.2136C53.8555 15.302 54.0814 16.3522 55.029 17.0146C55.855 17.5921 57.0303 17.7056 58.3552 17.7056V15.7056C57.0045 15.7056 56.4299 15.5537 56.1749 15.3755C56.0416 15.2823 55.8555 15.0864 55.8555 14.2136H53.8555ZM58.3552 17.7056H66.8023V15.7056H58.3552V17.7056ZM66.8023 17.7056C67.9949 17.7056 69.0554 17.6038 69.8396 17.1638C70.2639 16.9257 70.6037 16.5921 70.8343 16.1551C71.0573 15.7325 71.1504 15.2663 71.1744 14.7951L69.177 14.6935C69.1625 14.978 69.1114 15.1348 69.0655 15.2216C69.0273 15.294 68.9736 15.3564 68.8608 15.4196C68.5709 15.5824 67.9832 15.7056 66.8023 15.7056V17.7056ZM70.1757 13.7443H58.4733V15.7443H70.1757V13.7443ZM59.1706 14.0275L58.8354 13.7015L57.4409 15.1352L57.7761 15.4611L59.1706 14.0275ZM59.1382 14.4183V8.29211H57.1382V14.4183H59.1382Z" fill="black" mask="url(#path-7-inside-3)"/>
<path d="M70.2691 8.04695V9.04695H71.3895L71.2627 7.93377L70.2691 8.04695ZM70.1757 14.7443L71.1744 14.7951L71.2279 13.7443H70.1757V14.7443ZM58.4733 14.7443L57.7761 15.4611L58.0672 15.7443H58.4733V14.7443ZM58.1382 14.4183H57.1382V14.8407L57.4409 15.1352L58.1382 14.4183ZM58.4816 9.04695H70.2691V7.04695H58.4816V9.04695ZM71.2627 7.93377C71.2096 7.46827 71.0864 7.01548 70.8397 6.61103C70.5865 6.19597 70.2361 5.88562 69.8135 5.66553C69.0264 5.25557 67.984 5.16113 66.8106 5.16113V7.16113C67.9694 7.16113 68.5724 7.27413 68.8896 7.43935C69.0192 7.50685 69.0856 7.57602 69.1322 7.65245C69.1853 7.73949 69.2447 7.89017 69.2755 8.16014L71.2627 7.93377ZM66.8106 5.16113H58.3552V7.16113H66.8106V5.16113ZM58.3552 5.16113C57.0442 5.16113 55.8674 5.26294 55.0393 5.83264C54.0825 6.49091 53.8555 7.54821 53.8555 8.65311H55.8555C55.8555 7.75635 56.046 7.56766 56.1729 7.48035C56.4285 7.30449 57.0016 7.16113 58.3552 7.16113V5.16113ZM53.8555 8.65311V14.2136H55.8555V8.65311H53.8555ZM53.8555 14.2136C53.8555 15.302 54.0814 16.3522 55.029 17.0146C55.855 17.5921 57.0303 17.7056 58.3552 17.7056V15.7056C57.0045 15.7056 56.4299 15.5537 56.1749 15.3755C56.0416 15.2823 55.8555 15.0864 55.8555 14.2136H53.8555ZM58.3552 17.7056H66.8023V15.7056H58.3552V17.7056ZM66.8023 17.7056C67.9949 17.7056 69.0554 17.6038 69.8396 17.1638C70.2639 16.9257 70.6037 16.5921 70.8343 16.1551C71.0573 15.7325 71.1504 15.2663 71.1744 14.7951L69.177 14.6935C69.1625 14.978 69.1114 15.1348 69.0655 15.2216C69.0273 15.294 68.9736 15.3564 68.8608 15.4196C68.5709 15.5824 67.9832 15.7056 66.8023 15.7056V17.7056ZM70.1757 13.7443H58.4733V15.7443H70.1757V13.7443ZM59.1706 14.0275L58.8354 13.7015L57.4409 15.1352L57.7761 15.4611L59.1706 14.0275ZM59.1382 14.4183V8.29211H57.1382V14.4183H59.1382Z" fill="url(#paint4_linear)" mask="url(#path-7-inside-3)"/>
<path d="M3.29107 10.5801L3.44047 10.7508H3.66729H12.2051C13.5417 10.7508 14.2808 10.893 14.6922 11.1748C15.0415 11.4141 15.246 11.8264 15.246 12.7428V14.1814C15.246 15.1232 15.0397 15.5309 14.695 15.7636C14.2843 16.0409 13.5467 16.1734 12.2051 16.1734H3.45852C2.31456 16.1734 1.6052 16.0773 1.165 15.8657C0.959111 15.7668 0.820469 15.6459 0.720804 15.4981C0.667622 15.4193 0.620654 15.3255 0.581556 15.2121H12.6226H12.8764L13.0263 15.0072L13.235 14.7216L13.3314 14.5898V14.4265V12.5407V12.3307L13.1815 12.1837L12.9315 11.9386L12.7857 11.7956H12.5814H4.04089C2.69836 11.7956 1.97424 11.6527 1.57685 11.3744C1.23989 11.1385 1.04391 10.7287 1.04391 9.80357V8.6182C1.04391 7.66893 1.24311 7.26322 1.57681 7.03335C1.97475 6.75922 2.69785 6.62622 4.04089 6.62622H12.0732C13.6102 6.62622 14.3772 6.9617 14.7362 7.46355H3.66729H3.48866L3.35047 7.57674L3.10049 7.78148L2.91731 7.93152V8.1683V9.96522V10.1531L3.04109 10.2945L3.29107 10.5801Z" fill="white"/>
<path d="M3.29107 10.5801L3.44047 10.7508H3.66729H12.2051C13.5417 10.7508 14.2808 10.893 14.6922 11.1748C15.0415 11.4141 15.246 11.8264 15.246 12.7428V14.1814C15.246 15.1232 15.0397 15.5309 14.695 15.7636C14.2843 16.0409 13.5467 16.1734 12.2051 16.1734H3.45852C2.31456 16.1734 1.6052 16.0773 1.165 15.8657C0.959111 15.7668 0.820469 15.6459 0.720804 15.4981C0.667622 15.4193 0.620654 15.3255 0.581556 15.2121H12.6226H12.8764L13.0263 15.0072L13.235 14.7216L13.3314 14.5898V14.4265V12.5407V12.3307L13.1815 12.1837L12.9315 11.9386L12.7857 11.7956H12.5814H4.04089C2.69836 11.7956 1.97424 11.6527 1.57685 11.3744C1.23989 11.1385 1.04391 10.7287 1.04391 9.80357V8.6182C1.04391 7.66893 1.24311 7.26322 1.57681 7.03335C1.97475 6.75922 2.69785 6.62622 4.04089 6.62622H12.0732C13.6102 6.62622 14.3772 6.9617 14.7362 7.46355H3.66729H3.48866L3.35047 7.57674L3.10049 7.78148L2.91731 7.93152V8.1683V9.96522V10.1531L3.04109 10.2945L3.29107 10.5801Z" stroke="black"/>
<path d="M3.29107 10.5801L3.44047 10.7508H3.66729H12.2051C13.5417 10.7508 14.2808 10.893 14.6922 11.1748C15.0415 11.4141 15.246 11.8264 15.246 12.7428V14.1814C15.246 15.1232 15.0397 15.5309 14.695 15.7636C14.2843 16.0409 13.5467 16.1734 12.2051 16.1734H3.45852C2.31456 16.1734 1.6052 16.0773 1.165 15.8657C0.959111 15.7668 0.820469 15.6459 0.720804 15.4981C0.667622 15.4193 0.620654 15.3255 0.581556 15.2121H12.6226H12.8764L13.0263 15.0072L13.235 14.7216L13.3314 14.5898V14.4265V12.5407V12.3307L13.1815 12.1837L12.9315 11.9386L12.7857 11.7956H12.5814H4.04089C2.69836 11.7956 1.97424 11.6527 1.57685 11.3744C1.23989 11.1385 1.04391 10.7287 1.04391 9.80357V8.6182C1.04391 7.66893 1.24311 7.26322 1.57681 7.03335C1.97475 6.75922 2.69785 6.62622 4.04089 6.62622H12.0732C13.6102 6.62622 14.3772 6.9617 14.7362 7.46355H3.66729H3.48866L3.35047 7.57674L3.10049 7.78148L2.91731 7.93152V8.1683V9.96522V10.1531L3.04109 10.2945L3.29107 10.5801Z" stroke="url(#paint5_linear)"/>
<mask id="path-10-inside-4" fill="white">
<path d="M98.591 6.12622H93.759L93.509 6.61653L98.841 10.4555C99.8409 9.88439 100.964 9.31326 102.137 8.73943"/>
</mask>
<path d="M98.591 6.12622H93.759L93.509 6.61653L98.841 10.4555C99.8409 9.88439 100.964 9.31326 102.137 8.73943" fill="white"/>
<path d="M93.759 6.12622V5.12622H93.1464L92.8681 5.67201L93.759 6.12622ZM93.509 6.61653L92.6181 6.16232L92.2284 6.92673L92.9247 7.42807L93.509 6.61653ZM98.841 10.4555L98.2567 11.2671L98.7786 11.6428L99.337 11.3239L98.841 10.4555ZM98.591 5.12622H93.759V7.12622H98.591V5.12622ZM92.8681 5.67201L92.6181 6.16232L94.3999 7.07075L94.6499 6.58043L92.8681 5.67201ZM92.9247 7.42807L98.2567 11.2671L99.4253 9.64399L94.0933 5.805L92.9247 7.42807ZM99.337 11.3239C100.309 10.7686 101.41 10.2085 102.577 9.6377L101.698 7.84116C100.519 8.41801 99.3728 9.00016 98.3451 9.58719L99.337 11.3239Z" fill="black" mask="url(#path-10-inside-4)"/>
<path d="M93.759 6.12622V5.12622H93.1464L92.8681 5.67201L93.759 6.12622ZM93.509 6.61653L92.6181 6.16232L92.2284 6.92673L92.9247 7.42807L93.509 6.61653ZM98.841 10.4555L98.2567 11.2671L98.7786 11.6428L99.337 11.3239L98.841 10.4555ZM98.591 5.12622H93.759V7.12622H98.591V5.12622ZM92.8681 5.67201L92.6181 6.16232L94.3999 7.07075L94.6499 6.58043L92.8681 5.67201ZM92.9247 7.42807L98.2567 11.2671L99.4253 9.64399L94.0933 5.805L92.9247 7.42807ZM99.337 11.3239C100.309 10.7686 101.41 10.2085 102.577 9.6377L101.698 7.84116C100.519 8.41801 99.3728 9.00016 98.3451 9.58719L99.337 11.3239Z" fill="url(#paint6_linear)" mask="url(#path-10-inside-4)"/>
<mask id="path-12-inside-5" fill="white">
<path d="M102.923 13.3165L107.629 16.6652H112.461L112.67 16.2153L105.673 11.1909C104.755 11.886 103.797 12.581 102.926 13.3165"/>
</mask>
<path d="M102.923 13.3165L107.629 16.6652H112.461L112.67 16.2153L105.673 11.1909C104.755 11.886 103.797 12.581 102.926 13.3165" fill="white"/>
<path d="M107.629 16.6652L107.049 17.4799L107.309 17.6652H107.629V16.6652ZM112.461 16.6652V17.6652H113.099L113.368 17.0861L112.461 16.6652ZM112.67 16.2153L113.577 16.6362L113.925 15.8857L113.253 15.403L112.67 16.2153ZM105.673 11.1909L106.256 10.3787L105.657 9.94839L105.069 10.3938L105.673 11.1909ZM102.343 14.1313L107.049 17.4799L108.209 15.8504L103.503 12.5018L102.343 14.1313ZM107.629 17.6652H112.461V15.6652H107.629V17.6652ZM113.368 17.0861L113.577 16.6362L111.763 15.7944L111.554 16.2443L113.368 17.0861ZM113.253 15.403L106.256 10.3787L105.09 12.0032L112.086 17.0275L113.253 15.403ZM105.069 10.3938C104.175 11.0711 103.178 11.7943 102.281 12.5525L103.571 14.0805C104.415 13.3677 105.336 12.7008 106.277 11.988L105.069 10.3938Z" fill="black" mask="url(#path-12-inside-5)"/>
<path d="M107.629 16.6652L107.049 17.4799L107.309 17.6652H107.629V16.6652ZM112.461 16.6652V17.6652H113.099L113.368 17.0861L112.461 16.6652ZM112.67 16.2153L113.577 16.6362L113.925 15.8857L113.253 15.403L112.67 16.2153ZM105.673 11.1909L106.256 10.3787L105.657 9.94839L105.069 10.3938L105.673 11.1909ZM102.343 14.1313L107.049 17.4799L108.209 15.8504L103.503 12.5018L102.343 14.1313ZM107.629 17.6652H112.461V15.6652H107.629V17.6652ZM113.368 17.0861L113.577 16.6362L111.763 15.7944L111.554 16.2443L113.368 17.0861ZM113.253 15.403L106.256 10.3787L105.09 12.0032L112.086 17.0275L113.253 15.403ZM105.069 10.3938C104.175 11.0711 103.178 11.7943 102.281 12.5525L103.571 14.0805C104.415 13.3677 105.336 12.7008 106.277 11.988L105.069 10.3938Z" fill="url(#paint7_linear)" mask="url(#path-12-inside-5)"/>
<mask id="path-14-inside-6" fill="white">
<path d="M97.8824 16.6653H93.5091L93.1355 16.0941C96.0913 13.2735 109.343 1.27697 138.118 0C138.118 0 114.002 0.808209 97.8824 16.6653"/>
</mask>
<path d="M97.8824 16.6653H93.5091L93.1355 16.0941C96.0913 13.2735 109.343 1.27697 138.118 0C138.118 0 114.002 0.808209 97.8824 16.6653" fill="#B2B0B2"/>
<path d="M93.5091 16.6653L92.6722 17.2127L92.9683 17.6653H93.5091V16.6653ZM93.1355 16.0941L92.4451 15.3707L91.8431 15.9452L92.2986 16.6416L93.1355 16.0941ZM138.118 0L138.162 0.999017L138.085 -0.999439L138.118 0ZM97.8824 15.6653H93.5091V17.6653H97.8824V15.6653ZM94.346 16.1179L93.9724 15.5467L92.2986 16.6416L92.6722 17.2127L94.346 16.1179ZM93.8259 16.8176C96.6573 14.1156 109.691 2.26253 138.162 0.999017L138.074 -0.999017C108.995 0.291415 95.5253 12.4314 92.4451 15.3707L93.8259 16.8176ZM138.118 0C138.085 -0.999439 138.084 -0.999425 138.084 -0.999409C138.083 -0.999399 138.083 -0.999379 138.082 -0.999359C138.081 -0.999319 138.08 -0.999265 138.078 -0.999198C138.074 -0.999062 138.069 -0.998869 138.062 -0.998612C138.049 -0.998098 138.03 -0.997328 138.005 -0.996246C137.955 -0.994083 137.883 -0.990675 137.789 -0.985585C137.602 -0.975406 137.327 -0.958498 136.974 -0.931364C136.267 -0.877103 135.245 -0.781911 133.97 -0.617763C131.422 -0.289586 127.857 0.314883 123.783 1.42118C115.647 3.6305 105.408 7.85969 97.1811 15.9524L98.5837 17.3782C106.477 9.6138 116.356 5.51035 124.307 3.3513C128.277 2.27341 131.749 1.68476 134.226 1.36586C135.464 1.20647 136.452 1.11464 137.127 1.06276C137.465 1.03682 137.724 1.02088 137.898 1.01148C137.984 1.00678 138.049 1.00371 138.092 1.00185C138.113 1.00092 138.129 1.00029 138.139 0.999905C138.144 0.999713 138.148 0.999583 138.15 0.999507C138.151 0.999469 138.151 0.999445 138.152 0.999434C138.152 0.999429 138.152 0.99943 138.152 0.999427C138.152 0.999432 138.152 0.999439 138.118 0Z" fill="black" mask="url(#path-14-inside-6)"/>
<path d="M93.5091 16.6653L92.6722 17.2127L92.9683 17.6653H93.5091V16.6653ZM93.1355 16.0941L92.4451 15.3707L91.8431 15.9452L92.2986 16.6416L93.1355 16.0941ZM138.118 0L138.162 0.999017L138.085 -0.999439L138.118 0ZM97.8824 15.6653H93.5091V17.6653H97.8824V15.6653ZM94.346 16.1179L93.9724 15.5467L92.2986 16.6416L92.6722 17.2127L94.346 16.1179ZM93.8259 16.8176C96.6573 14.1156 109.691 2.26253 138.162 0.999017L138.074 -0.999017C108.995 0.291415 95.5253 12.4314 92.4451 15.3707L93.8259 16.8176ZM138.118 0C138.085 -0.999439 138.084 -0.999425 138.084 -0.999409C138.083 -0.999399 138.083 -0.999379 138.082 -0.999359C138.081 -0.999319 138.08 -0.999265 138.078 -0.999198C138.074 -0.999062 138.069 -0.998869 138.062 -0.998612C138.049 -0.998098 138.03 -0.997328 138.005 -0.996246C137.955 -0.994083 137.883 -0.990675 137.789 -0.985585C137.602 -0.975406 137.327 -0.958498 136.974 -0.931364C136.267 -0.877103 135.245 -0.781911 133.97 -0.617763C131.422 -0.289586 127.857 0.314883 123.783 1.42118C115.647 3.6305 105.408 7.85969 97.1811 15.9524L98.5837 17.3782C106.477 9.6138 116.356 5.51035 124.307 3.3513C128.277 2.27341 131.749 1.68476 134.226 1.36586C135.464 1.20647 136.452 1.11464 137.127 1.06276C137.465 1.03682 137.724 1.02088 137.898 1.01148C137.984 1.00678 138.049 1.00371 138.092 1.00185C138.113 1.00092 138.129 1.00029 138.139 0.999905C138.144 0.999713 138.148 0.999583 138.15 0.999507C138.151 0.999469 138.151 0.999445 138.152 0.999434C138.152 0.999429 138.152 0.99943 138.152 0.999427C138.152 0.999432 138.152 0.999439 138.118 0Z" fill="url(#paint8_linear)" mask="url(#path-14-inside-6)"/>
<defs>
<linearGradient id="paint0_linear" x1="27.7368" y1="6.1665" x2="27.7368" y2="16.6651" gradientUnits="userSpaceOnUse">
<stop stop-color="white"/>
<stop offset="1" stop-color="white" stop-opacity="0"/>
</linearGradient>
<linearGradient id="paint1_linear" x1="43.6297" y1="6.04541" x2="43.6297" y2="16.6653" gradientUnits="userSpaceOnUse">
<stop stop-color="white"/>
<stop offset="1" stop-color="white" stop-opacity="0"/>
</linearGradient>
<linearGradient id="paint2_linear" x1="82.0128" y1="9.68237" x2="82.0128" y2="16.6653" gradientUnits="userSpaceOnUse">
<stop stop-color="white"/>
<stop offset="1" stop-color="white" stop-opacity="0"/>
</linearGradient>
<linearGradient id="paint3_linear" x1="82.076" y1="6.16943" x2="82.076" y2="8.13069" gradientUnits="userSpaceOnUse">
<stop stop-color="white"/>
<stop offset="1" stop-color="white" stop-opacity="0"/>
</linearGradient>
<linearGradient id="paint4_linear" x1="62.5623" y1="6.16113" x2="62.5623" y2="16.7056" gradientUnits="userSpaceOnUse">
<stop stop-color="white"/>
<stop offset="1" stop-color="white" stop-opacity="0"/>
</linearGradient>
<linearGradient id="paint5_linear" x1="7.873" y1="6.12622" x2="7.873" y2="16.6734" gradientUnits="userSpaceOnUse">
<stop stop-color="white"/>
<stop offset="1" stop-color="white" stop-opacity="0"/>
</linearGradient>
<linearGradient id="paint6_linear" x1="97.8233" y1="6.12622" x2="97.8233" y2="10.4555" gradientUnits="userSpaceOnUse">
<stop stop-color="white"/>
<stop offset="1" stop-color="white" stop-opacity="0"/>
</linearGradient>
<linearGradient id="paint7_linear" x1="107.796" y1="11.1909" x2="107.796" y2="16.6652" gradientUnits="userSpaceOnUse">
<stop stop-color="white"/>
<stop offset="1" stop-color="white" stop-opacity="0"/>
</linearGradient>
<linearGradient id="paint8_linear" x1="115.627" y1="0" x2="115.627" y2="16.6653" gradientUnits="userSpaceOnUse">
<stop stop-color="white"/>
<stop offset="1" stop-color="white" stop-opacity="0"/>
</linearGradient>
</defs>
</svg>
